<svg xmlns="http://www.w3.org/2000/svg" viewBox="0 0 700 370" role="img"><title>Anhydrous chlorobenzene</title><rect x="8" y="8" width="684" height="354" rx="20" fill="#eef5f8"/><text x="350" y="38" text-anchor="middle" font-family="Arial" font-size="18" fill="#243d51">Anhydrous chlorobenzene</text><path d="M371.65 185.00L335.57 122.50" stroke="#587284" stroke-width="2"/><path d="M374.65 188.00L338.57 125.50" stroke="#587284" stroke-width="1.4" stroke-dasharray="4 3"/><path d="M335.57 122.50L263.40 122.50" stroke="#587284" stroke-width="2"/><path d="M338.57 125.50L266.40 125.50" stroke="#587284" stroke-width="1.4" stroke-dasharray="4 3"/><path d="M263.40 122.50L227.31 185.00" stroke="#587284" stroke-width="2"/><path d="M266.40 125.50L230.31 188.00" stroke="#587284" stroke-width="1.4" stroke-dasharray="4 3"/><path d="M227.31 185.00L263.40 247.50" stroke="#587284" stroke-width="2"/><path d="M230.31 188.00L266.40 250.50" stroke="#587284" stroke-width="1.4" stroke-dasharray="4 3"/><path d="M263.40 247.50L335.57 247.50" stroke="#587284" stroke-width="2"/><path d="M266.40 250.50L338.57 250.50" stroke="#587284" stroke-width="1.4" stroke-dasharray="4 3"/><path d="M335.57 247.50L371.65 185.00" stroke="#587284" stroke-width="2"/><path d="M338.57 250.50L374.65 188.00" stroke="#587284" stroke-width="1.4" stroke-dasharray="4 3"/><path d="M371.65 185.00L472.69 185.00" stroke="#587284" stroke-width="2"/><circle cx="472.69" cy="185.00" r="10" fill="#eef5f8"/><text x="472.68693220279545" y="190.0" text-anchor="middle" font-family="Arial" font-size="14" fill="#243d51">Cl</text><text x="350" y="282" text-anchor="middle" font-family="Arial" font-size="16" fill="#243d51">C6H5Cl</text><text x="350" y="315" text-anchor="middle" font-family="Arial" font-size="13" fill="#243d51">Reference identity; no measured source geometry</text><text x="350" y="342" text-anchor="middle" font-family="Arial" font-size="12" fill="#243d51">Grade, role and unresolved composition remain in the source notes</text></svg>