<svg xmlns="http://www.w3.org/2000/svg" width="1000" height="780" viewBox="0 0 1000 780"><rect width="1000" height="780" rx="14" fill="#f8fafc"/><g font-family="Arial,sans-serif"><text x="30" y="30" font-size="14" fill="#56788d">PEVELER 2016 · QUALIFIED CHEMICAL IDENTITY</text><text x="30" y="74" font-size="23" fill="#233f52">Hexadecylamine</text><text x="32" y="178" font-size="22" fill="#38576b">Reference formula: C16H35N</text><line x1="940.00" y1="355.88" x2="885.00" y2="324.12" stroke="#364f60" stroke-width="2.3"/><line x1="885.00" y1="324.12" x2="830.00" y2="355.88" stroke="#364f60" stroke-width="2.3"/><line x1="830.00" y1="355.88" x2="775.00" y2="324.12" stroke="#364f60" stroke-width="2.3"/><line x1="775.00" y1="324.12" x2="720.00" y2="355.88" stroke="#364f60" stroke-width="2.3"/><line x1="720.00" y1="355.88" x2="665.00" y2="324.12" stroke="#364f60" stroke-width="2.3"/><line x1="665.00" y1="324.12" x2="610.00" y2="355.88" stroke="#364f60" stroke-width="2.3"/><line x1="610.00" y1="355.88" x2="555.00" y2="324.12" stroke="#364f60" stroke-width="2.3"/><line x1="555.00" y1="324.12" x2="500.00" y2="355.88" stroke="#364f60" stroke-width="2.3"/><line x1="500.00" y1="355.88" x2="445.00" y2="324.12" stroke="#364f60" stroke-width="2.3"/><line x1="445.00" y1="324.12" x2="390.00" y2="355.88" stroke="#364f60" stroke-width="2.3"/><line x1="390.00" y1="355.88" x2="335.00" y2="324.12" stroke="#364f60" stroke-width="2.3"/><line x1="335.00" y1="324.12" x2="280.00" y2="355.88" stroke="#364f60" stroke-width="2.3"/><line x1="280.00" y1="355.88" x2="225.00" y2="324.12" stroke="#364f60" stroke-width="2.3"/><line x1="225.00" y1="324.12" x2="170.00" y2="355.88" stroke="#364f60" stroke-width="2.3"/><line x1="170.00" y1="355.88" x2="115.00" y2="324.12" stroke="#364f60" stroke-width="2.3"/><line x1="115.00" y1="324.12" x2="60.00" y2="355.88" stroke="#364f60" stroke-width="2.3"/><rect x="919.00" y="341.88" width="42" height="29" rx="4" fill="#f8fafc"/><text x="940.00" y="363.88" text-anchor="middle" font-size="21" fill="#285b94">NH2</text><text x="30" y="512" font-size="15" fill="#596d7d">Formal 2D reference; carbon/hydrogen may be implicit. No measured geometry.</text><line x1="30" y1="540" x2="970" y2="540" stroke="#cedae3"/><text x="30" y="574" font-size="17" fill="#42586a">Qualified free neutral reference with exact cached connectivity and illustrative coordinates. No</text><text x="30" y="599" font-size="17" fill="#42586a">measured sample geometry, solution complex or surface binding is asserted.</text><text x="30" y="748" font-size="14" fill="#607789">Source identity: ACS Nano 2016 · DOI 10.1021/acsnano.5b06433</text></g></svg>