<svg xmlns="http://www.w3.org/2000/svg" viewBox="0 0 760 420" role="img" aria-labelledby="title desc">
  <title id="title">Co–Ni sulfide · precursor-ratio TEM series</title><desc id="desc">panels (a)–(d). Qualitative source-figure interpretation; not to scale.</desc>
  <rect width="100%" height="100%" fill="#f8fafc"/>
  <text x="28" y="35" font-family="sans-serif" font-size="20" font-weight="700" fill="#1f2937">Co–Ni sulfide · precursor-ratio TEM series</text>
  <text x="28" y="62" font-family="sans-serif" font-size="13" fill="#475569">panels (a)–(d)</text>
  <g transform="translate(32,84)"><rect width="696" height="292" rx="12" fill="#fff" stroke="#cbd5e1"/>
      <text x="16" y="25" font-family="sans-serif" font-size="14" font-weight="700" fill="#334155">Four TEM ratio contexts; illustrative outlines only</text><g><rect x="28" y="48" width="165" height="102" rx="8" fill="#fff" stroke="#cbd5e1"/><text x="36" y="67" font-family="sans-serif" font-size="11" fill="#334155">a · Co:Ni 1:3</text><ellipse cx="55" cy="93" rx="12" ry="9" fill="#73859a" stroke="#334155" stroke-width="2"/><ellipse cx="101" cy="98" rx="12" ry="9" fill="#73859a" stroke="#334155" stroke-width="2"/><ellipse cx="144" cy="90" rx="12" ry="9" fill="#73859a" stroke="#334155" stroke-width="2"/><ellipse cx="179" cy="104" rx="12" ry="9" fill="#73859a" stroke="#334155" stroke-width="2"/><ellipse cx="75" cy="125" rx="12" ry="9" fill="#73859a" stroke="#334155" stroke-width="2"/><ellipse cx="130" cy="130" rx="12" ry="9" fill="#73859a" stroke="#334155" stroke-width="2"/><ellipse cx="171" cy="126" rx="12" ry="9" fill="#73859a" stroke="#334155" stroke-width="2"/></g><g><rect x="201" y="48" width="165" height="102" rx="8" fill="#fff" stroke="#cbd5e1"/><text x="209" y="67" font-family="sans-serif" font-size="11" fill="#334155">b · Co:Ni 1:2.9</text><ellipse cx="228" cy="93" rx="12" ry="9" fill="#73859a" stroke="#334155" stroke-width="2"/><ellipse cx="274" cy="98" rx="12" ry="9" fill="#73859a" stroke="#334155" stroke-width="2"/><ellipse cx="317" cy="90" rx="12" ry="9" fill="#73859a" stroke="#334155" stroke-width="2"/><ellipse cx="352" cy="104" rx="12" ry="9" fill="#73859a" stroke="#334155" stroke-width="2"/><ellipse cx="248" cy="125" rx="12" ry="9" fill="#73859a" stroke="#334155" stroke-width="2"/><ellipse cx="303" cy="130" rx="12" ry="9" fill="#73859a" stroke="#334155" stroke-width="2"/><ellipse cx="344" cy="126" rx="12" ry="9" fill="#73859a" stroke="#334155" stroke-width="2"/></g><g><rect x="28" y="164" width="165" height="102" rx="8" fill="#fff" stroke="#cbd5e1"/><text x="36" y="183" font-family="sans-serif" font-size="11" fill="#334155">c · Co:Ni 1:2.3</text><ellipse cx="55" cy="209" rx="12" ry="9" fill="#73859a" stroke="#334155" stroke-width="2"/><ellipse cx="101" cy="214" rx="12" ry="9" fill="#73859a" stroke="#334155" stroke-width="2"/><ellipse cx="144" cy="206" rx="12" ry="9" fill="#73859a" stroke="#334155" stroke-width="2"/><ellipse cx="179" cy="220" rx="12" ry="9" fill="#73859a" stroke="#334155" stroke-width="2"/><ellipse cx="75" cy="241" rx="12" ry="9" fill="#73859a" stroke="#334155" stroke-width="2"/><ellipse cx="130" cy="246" rx="12" ry="9" fill="#73859a" stroke="#334155" stroke-width="2"/><ellipse cx="171" cy="242" rx="12" ry="9" fill="#73859a" stroke="#334155" stroke-width="2"/></g><g><rect x="201" y="164" width="165" height="102" rx="8" fill="#fff" stroke="#cbd5e1"/><text x="209" y="183" font-family="sans-serif" font-size="11" fill="#334155">d · Co:Ni 1:1</text><ellipse cx="228" cy="209" rx="12" ry="9" fill="#73859a" stroke="#334155" stroke-width="2"/><ellipse cx="274" cy="214" rx="12" ry="9" fill="#73859a" stroke="#334155" stroke-width="2"/><ellipse cx="317" cy="206" rx="12" ry="9" fill="#73859a" stroke="#334155" stroke-width="2"/><ellipse cx="352" cy="220" rx="12" ry="9" fill="#73859a" stroke="#334155" stroke-width="2"/><ellipse cx="248" cy="241" rx="12" ry="9" fill="#73859a" stroke="#334155" stroke-width="2"/><ellipse cx="303" cy="246" rx="12" ry="9" fill="#73859a" stroke="#334155" stroke-width="2"/><ellipse cx="344" cy="242" rx="12" ry="9" fill="#73859a" stroke="#334155" stroke-width="2"/></g></g>
  <text x="28" y="402" font-family="sans-serif" font-size="12" fill="#64748b">QUALITATIVE SCHEMATIC · NOT TO SCALE · NO PARTICLE COUNTS OR DIMENSIONS</text>
</svg>